<?xml version="1.0" encoding="iso-8859-1"?>
<!-- Uploaded to: SVG Repo, www.svgrepo.com, Generator: SVG Repo Mixer Tools -->
<svg height="800px" width="800px" version="1.1" id="Layer_1" xmlns="http://www.w3.org/2000/svg" xmlns:xlink="http://www.w3.org/1999/xlink" 
	 viewBox="0 0 511.999 511.999" xml:space="preserve">
<path style="fill:#2BA5F7;" d="M421.45,175.731l-14.032,16.202l-8.791,10.146l-70.806,81.756l-0.012,0.012
	c-10.962-6.764-23.098-11.789-36.039-14.679c-8.371-1.883-17.078-2.878-26.001-2.878c-65.373,0-118.358,52.985-118.358,118.358
	c0,3.094,0.12,6.152,0.36,9.187c1.331,17.486,6.464,33.892,14.583,48.415c-31.613,6.164-65.709-2.89-90.391-27.584
	c-4.269-4.27-8.071-8.815-11.405-13.588l-0.012-0.012c-12.065-17.258-18.037-37.394-18.037-57.482
	c0-28.075,11.669-56.079,34.719-76.047L284.551,88.003L310.9,65.18L421.45,175.731z"/>
<g>
	<path style="fill:#2197D8;" d="M147.772,393.833c1.331,17.486,6.464,33.892,14.583,48.415c-31.613,6.164-65.709-2.89-90.391-27.584
		c-4.269-4.269-8.071-8.815-11.405-13.588C81.787,419.751,113.041,413.478,147.772,393.833z"/>
	<path style="fill:#2197D8;" d="M407.419,191.933l-8.791,10.146l-70.806,81.756l-0.012,0.012
		c-10.962-6.764-23.098-11.789-36.039-14.679c49.687-53.524,86.565-101.592,86.565-101.592L407.419,191.933z"/>
	<path style="fill:#2197D8;" d="M265.771,320.461v34.695c-16.286,0-29.491,13.204-29.491,29.491h-34.695h-0.012
		C201.572,349.196,230.32,320.461,265.771,320.461z"/>
</g>
<path style="fill:#F95428;" d="M473.692,146.684c5.253,5.265,5.253,13.792,0,19.057l-21.587,21.587
	c-5.265,5.253-13.792,5.253-19.057,0l-11.597-11.597v-0.012L310.9,65.18l-11.597-11.597c-5.265-5.265-5.265-13.792,0-19.057
	l21.587-21.587c5.265-5.265,13.792-5.265,19.057,0L473.692,146.684z"/>
<polygon style="fill:#2197D8;" points="421.45,175.731 398.628,202.079 397.465,200.916 397.465,200.904 286.914,90.365 
	284.551,88.002 310.9,65.18 "/>
<g>
	<path style="fill:#B27214;" d="M162.356,442.249c-9.522-17.042-14.943-36.686-14.943-57.602
		c0-65.373,52.985-118.358,118.358-118.358c22.751,0,44.002,6.428,62.039,17.558c33.796,20.832,56.319,58.178,56.319,100.8
		c0,65.373-52.997,118.358-118.358,118.358C221.313,503.005,182.576,478.492,162.356,442.249z M265.771,448.833
		c35.451,0,64.186-28.735,64.186-64.186s-28.735-64.186-64.186-64.186s-64.198,28.735-64.198,64.186S230.32,448.833,265.771,448.833
		z"/>
	<circle style="fill:#B27214;" cx="265.774" cy="384.649" r="29.491"/>
</g>
<g>
	<path style="fill:#333333;" d="M480.047,140.324L346.303,6.581C342.06,2.337,336.417,0,330.416,0
		c-6.002,0-11.644,2.337-15.888,6.581l-21.584,21.582c-8.76,8.761-8.76,23.016,0,31.775l4.771,4.771L71.342,260.744
		c-24.036,20.823-37.823,51.017-37.823,82.835c0,26.233,9.188,51.043,25.999,70.81L28.016,445.89c-3.513,3.513-3.513,9.208,0,12.72
		c1.756,1.757,4.058,2.635,6.36,2.635s4.604-0.878,6.36-2.635l31.507-31.507c19.881,16.868,44.958,26.013,70.779,26.011
		c4.906,0,9.841-0.35,14.77-1.018c22.537,35.946,62.508,59.902,107.976,59.902c70.223,0,127.354-57.131,127.354-127.354
		c0-42.008-20.448-79.323-51.909-102.535l80.705-93.202l4.772,4.772c4.244,4.244,9.886,6.582,15.888,6.582
		s11.644-2.337,15.888-6.582l21.582-21.582C488.807,163.34,488.807,149.085,480.047,140.324z M375.133,384.647
		c0,60.304-49.061,109.365-109.365,109.365s-109.365-49.061-109.365-109.365s49.061-109.365,109.365-109.365
		S375.133,324.343,375.133,384.647z M325.843,272.381c-17.907-9.621-38.364-15.087-60.075-15.087
		c-70.223,0-127.354,57.131-127.354,127.354c0,17.853,3.699,34.855,10.361,50.292c-26.059,1.633-51.724-7.903-70.451-26.63
		c-17.293-17.293-26.815-40.281-26.815-64.731c0-26.598,11.523-51.835,31.611-69.237L310.467,77.465l32.9,32.897l65.797,65.797
		L325.843,272.381z M467.327,159.38l-21.584,21.582c-1.142,1.142-2.474,1.312-3.167,1.312s-2.026-0.171-3.167-1.312L305.665,47.218
		c-1.746-1.746-1.746-4.588,0-6.335l21.584-21.582c1.142-1.142,2.474-1.312,3.167-1.312c0.693,0,2.026,0.17,3.167,1.312
		l133.744,133.742C469.073,154.791,469.073,157.632,467.327,159.38z"/>
	<path style="fill:#333333;" d="M192.583,384.647c0,40.355,32.831,73.185,73.186,73.185s73.186-32.831,73.186-73.185
		s-32.831-73.186-73.186-73.186S192.583,344.292,192.583,384.647z M265.768,405.14c-11.3,0-20.493-9.194-20.493-20.493
		s9.194-20.493,20.493-20.493s20.493,9.194,20.493,20.493S277.068,405.14,265.768,405.14z M256.772,330.195v17.041
		c-14.004,3.368-25.046,14.408-28.415,28.412h-17.041C215.145,352.409,233.532,334.022,256.772,330.195z M211.316,393.638h17.041
		c3.366,14.007,14.409,25.051,28.416,28.418v17.041C233.53,435.271,215.141,416.881,211.316,393.638z M274.762,439.099v-17.041
		c14.007-3.368,25.05-14.412,28.417-28.418h17.042C316.395,416.882,298.005,435.272,274.762,439.099z M320.22,375.649h-17.042
		c-3.369-14.004-14.411-25.046-28.416-28.412v-17.042C298.003,334.02,316.391,352.409,320.22,375.649z"/>
</g>
</svg>